# xmcd
#
# Track frame offsets: 
#        150
#        16968
#        34659
#        59957
#        80409
#        98738
#        115026
#        132566
#        153504
#        175317
#        192762
#        214921
#
# Disc length: 3120 seconds
#
# Revision: 0
# Processed by: cddbd v1.5.2PL0 Copyright (c) Steve Scherf et al.
# Submitted via: ExactAudioCopy v1.0b3
#
DISCID=a50c2e0c
DTITLE=Rune og Rita Ørnes - Dele livets ord
DYEAR=2011
DGENRE=Christian Rock
TTITLE0=Ordet om korset
TTITLE1=Det er Jesus
TTITLE2=Ære til deg far
TTITLE3=Stor er din nåde
TTITLE4=Rockefot
TTITLE5=Mitt kjære barn
TTITLE6=Salme 27
TTITLE7=Ingenting
TTITLE8=Dele livets ord
TTITLE9=Salme 96
TTITLE10=Til din ære
TTITLE11=Seieren er vår
EXTD=
EXTT0=
EXTT1=
EXTT2=
EXTT3=
EXTT4=
EXTT5=
EXTT6=
EXTT7=
EXTT8=
EXTT9=
EXTT10=
EXTT11=
PLAYORDER=
